# xmcd
#
# Track frame offsets:
#	150
#	12538
#	24691
#	37165
#	50086
#	60091
#	72467
#	85748
#	99127
#	110277
#	123155
#	134904
#
# Disc length: 1952 seconds
#
# Revision: 1
# Processed by: cddbd v1.5.2PL0 Copyright (c) Steve Scherf et al.
# Submitted via: audiograbber 1.83.01
#
DISCID=a3079e0c
DTITLE=Hank Williams - Hank Williams Sings Kaw-Liga and Other Humorous Songs
DYEAR=1965
DGENRE=Folk and Western
TTITLE0=Howlin' at the Moon
TTITLE1=Just Waitin'
TTITLE2=Move it on Over
TTITLE3=Everything's Okay
TTITLE4=Honky Tonk Blues
TTITLE5=Fly Trouble
TTITLE6=Mind Your Own Business
TTITLE7=I've Been Down That Road Before
TTITLE8=I'll Never Get Out of This World Alive
TTITLE9=Please Make Up Your Mind
TTITLE10=Kaw-Liga
TTITLE11=Nobody's Lonesome for Me
EXTD=Vinyl Lp by M-G-M
EXTT0=
EXTT1=
EXTT2=
EXTT3=
EXTT4=
EXTT5=
EXTT6=
EXTT7=
EXTT8=
EXTT9=
EXTT10=
EXTT11=
PLAYORDER=
